<svg aria-hidden="true" style="position:absolute;width:0;height:0" xmlns="http://www.w3.org/2000/svg" overflow="hidden">   
    <defs>
        <symbol id="close" viewBox="0 0 28 28">
            <path d="M21 7L7 21"  stroke-width="2" stroke-linecap="round" stroke-linejoin="round"/>
            <path d="M7 7L21 21" stroke-width="2" stroke-linecap="round" stroke-linejoin="round"/> 
        </symbol>
        <symbol id="intl-flag" viewBox="0 0 28 28">
            <path fill="gold" d="M31.83 1.06H.24v23.5h31.6V1.07Z"/>
            <path fill="#0057B7" fill-rule="evenodd" d="M.24 1.06h31.6V12.8H.23V1.06Z" clip-rule="evenodd"/> 
        </symbol>
        <symbol id="master-card" viewBox="0 0 32 20">
            <path fill="#ED0006" d="M16 16.83a9.08 9.08 0 0 1-5.94 2.2 9.18 9.18 0 0 1-9.15-9.2c0-5.08 4.1-9.2 9.15-9.2 2.27 0 4.34.82 5.94 2.2a9.08 9.08 0 0 1 5.94-2.2 9.18 9.18 0 0 1 9.15 9.2c0 5.08-4.1 9.2-9.15 9.2a9.08 9.08 0 0 1-5.94-2.2Z"/>
            <path fill="#F9A000" d="M16 16.83a9.2 9.2 0 0 0 0-14 9.08 9.08 0 0 1 5.94-2.2 9.18 9.18 0 0 1 9.15 9.2c0 5.08-4.1 9.2-9.15 9.2a9.08 9.08 0 0 1-5.94-2.2Z"/>
            <path fill="#FF5E00" d="M16 16.83a9.2 9.2 0 0 0 0-14 9.2 9.2 0 0 0 0 14Z"/>
        </symbol>
    </defs>
</svg>